<?xml version="1.0" standalone="no"?>
<!DOCTYPE svg PUBLIC "-//W3C//DTD SVG 20010904//EN"
 "http://www.w3.org/TR/2001/REC-SVG-20010904/DTD/svg10.dtd">
<svg version="1.0" xmlns="http://www.w3.org/2000/svg"
 width="128.000000pt" height="128.000000pt" viewBox="0 0 128.000000 128.000000"
 preserveAspectRatio="xMidYMid meet">
<metadata>
Created by potrace 1.11, written by Peter Selinger 2001-2013
</metadata>
<g transform="translate(0.000000,128.000000) scale(0.100000,-0.100000)"
fill="#000000" stroke="none">
<path d="M148 1222 c-30 -4 -76 -45 -90 -81 -5 -14 -9 -236 -9 -512 -1 -547
-2 -535 71 -568 34 -15 86 -17 526 -16 342 0 495 4 509 12 11 6 31 23 45 38
l25 27 2 497 c3 548 4 538 -60 585 -28 21 -39 21 -510 21 -265 1 -494 -1 -509
-3z"/>
</g>
</svg>
